<svg width="30" height="30" viewBox="0 0 30 30" fill="none" xmlns="http://www.w3.org/2000/svg">
<g clip-path="url(#clip0_302_446)">
<rect width="30" height="30" rx="5" fill="#FF3C31"/>
<mask id="path-2-outside-1_302_446" maskUnits="userSpaceOnUse" x="-1.12132" y="-1.91396" width="35.9659" height="33.8446" fill="black">
<rect fill="white" x="-1.12132" y="-1.91396" width="35.9659" height="33.8446"/>
<path d="M12.603 5.19175C14.7218 4.62403 16.4393 4.56873 17.7557 5.02584C19.0778 5.47308 19.9266 6.39776 20.3023 7.79988C20.486 8.48537 20.5618 9.09539 20.5297 9.62997C20.5033 10.1547 20.392 10.627 20.1956 11.047C20.0049 11.4571 19.7412 11.8283 19.4045 12.1606C19.0734 12.4831 18.699 12.7838 18.2811 13.0627C18.6235 13.0628 19.0044 13.207 19.424 13.4954C19.8513 13.7816 20.3066 14.1564 20.7897 14.6197C21.2708 15.0752 21.7724 15.592 22.2947 16.1701C22.8169 16.7481 23.3412 17.334 23.8676 17.9276C24.4018 18.5192 24.9308 19.0913 25.4546 19.6439C25.9862 20.1944 26.495 20.6759 26.9812 21.0883C27.4752 21.4986 27.9421 21.8076 28.3818 22.0154C28.8293 22.2211 29.2322 22.2759 29.5905 22.1799C29.7463 22.1382 29.8899 22.0663 30.0212 21.9643C30.1603 21.8603 30.2643 21.7656 30.3333 21.6803L30.7008 22.0703C30.5679 22.1977 30.4022 22.3423 30.2034 22.5041C30.0067 22.6737 29.769 22.8459 29.4903 23.0208C29.2115 23.1957 28.8896 23.3654 28.5246 23.53C28.1695 23.7003 27.7622 23.847 27.3026 23.9702C26.547 24.1726 25.8091 24.1449 25.0888 23.8871C24.3706 23.6371 23.6921 23.1927 23.0535 22.554C22.4007 21.894 21.7454 21.193 21.0873 20.4509C20.4293 19.7089 19.7713 18.9668 19.1133 18.2247C18.4631 17.4806 17.8141 16.757 17.1666 16.0539C16.5268 15.3487 15.8966 14.6952 15.2762 14.0933L15.2413 13.5892C15.7322 13.5829 16.1222 13.4492 16.4112 13.1881C16.708 12.9249 16.9143 12.5732 17.0302 12.1331C17.1439 11.6851 17.1763 11.1672 17.1273 10.5792C17.0861 9.98915 16.9778 9.36695 16.8025 8.71263C16.6772 8.24525 16.5097 7.82261 16.2999 7.44468C16.088 7.05897 15.8479 6.73926 15.5796 6.48556C15.3169 6.22199 15.0341 6.03895 14.7311 5.93646C14.4261 5.82618 14.1138 5.81382 13.7945 5.8994C13.5452 5.96619 13.3492 6.06045 13.2065 6.18217C13.0695 6.29403 12.9699 6.4209 12.9078 6.56278C12.8435 6.69689 12.8096 6.83536 12.8062 6.97822C12.8084 7.11121 12.8252 7.23612 12.8565 7.35296L16.5696 21.2106C16.7303 21.8104 16.6875 22.2894 16.4412 22.6476C16.2027 23.0037 15.7602 23.2684 15.1136 23.4416C14.4593 23.617 13.9398 23.6101 13.5552 23.4209C13.1706 23.2318 12.8979 22.8373 12.7372 22.2375L8.99272 8.26302C8.87792 7.8346 8.52452 7.6997 7.93251 7.85833C7.50409 7.97312 7.08561 8.15622 6.67709 8.40761C6.27427 8.64913 5.92397 8.93084 5.62617 9.25275C5.33409 9.56478 5.11684 9.90685 4.97443 10.279C4.82993 10.6433 4.80569 11.0046 4.9017 11.3629C4.96849 11.6122 5.05287 11.8025 5.15485 11.9338C5.26461 12.063 5.37277 12.1551 5.47933 12.21C5.5838 12.2572 5.68201 12.2809 5.77395 12.2813C5.8716 12.2719 5.9399 12.2619 5.97885 12.2515C6.17359 12.1993 6.32492 12.1254 6.43286 12.0297C6.53871 11.9262 6.63287 11.8258 6.71535 11.7285C6.79574 11.6235 6.87043 11.5284 6.93942 11.4431C7.01411 11.3479 7.10988 11.2847 7.22672 11.2534C7.3202 11.2283 7.42383 11.2256 7.53761 11.2452C7.6571 11.255 7.77221 11.2951 7.88295 11.3656C8.00147 11.434 8.11276 11.5378 8.21682 11.6769C8.31879 11.8082 8.399 11.9829 8.45744 12.201C8.54093 12.5126 8.55062 12.798 8.48652 13.0573C8.4302 13.3145 8.32555 13.5471 8.17255 13.7551C8.02526 13.9532 7.83742 14.1246 7.60902 14.2692C7.38633 14.4041 7.15425 14.5038 6.91277 14.5685C6.53887 14.6687 6.18333 14.6972 5.84614 14.6539C5.51466 14.6008 5.21349 14.4895 4.94264 14.32C4.6718 14.1504 4.44114 13.9284 4.25069 13.6538C4.06023 13.3792 3.91909 13.0706 3.82725 12.7278C3.65401 12.0813 3.62239 11.4803 3.73237 10.9249C3.84026 10.3616 4.06431 9.8424 4.40452 9.3672C4.75251 8.88991 5.20289 8.45197 5.75565 8.0534C6.30632 7.64703 6.93677 7.27356 7.647 6.93297C8.35722 6.59239 9.12956 6.28108 9.96402 5.99905C10.8042 5.70714 11.6838 5.43804 12.603 5.19175Z"/>
</mask>
<path d="M12.603 5.19175C14.7218 4.62403 16.4393 4.56873 17.7557 5.02584C19.0778 5.47308 19.9266 6.39776 20.3023 7.79988C20.486 8.48537 20.5618 9.09539 20.5297 9.62997C20.5033 10.1547 20.392 10.627 20.1956 11.047C20.0049 11.4571 19.7412 11.8283 19.4045 12.1606C19.0734 12.4831 18.699 12.7838 18.2811 13.0627C18.6235 13.0628 19.0044 13.207 19.424 13.4954C19.8513 13.7816 20.3066 14.1564 20.7897 14.6197C21.2708 15.0752 21.7724 15.592 22.2947 16.1701C22.8169 16.7481 23.3412 17.334 23.8676 17.9276C24.4018 18.5192 24.9308 19.0913 25.4546 19.6439C25.9862 20.1944 26.495 20.6759 26.9812 21.0883C27.4752 21.4986 27.9421 21.8076 28.3818 22.0154C28.8293 22.2211 29.2322 22.2759 29.5905 22.1799C29.7463 22.1382 29.8899 22.0663 30.0212 21.9643C30.1603 21.8603 30.2643 21.7656 30.3333 21.6803L30.7008 22.0703C30.5679 22.1977 30.4022 22.3423 30.2034 22.5041C30.0067 22.6737 29.769 22.8459 29.4903 23.0208C29.2115 23.1957 28.8896 23.3654 28.5246 23.53C28.1695 23.7003 27.7622 23.847 27.3026 23.9702C26.547 24.1726 25.8091 24.1449 25.0888 23.8871C24.3706 23.6371 23.6921 23.1927 23.0535 22.554C22.4007 21.894 21.7454 21.193 21.0873 20.4509C20.4293 19.7089 19.7713 18.9668 19.1133 18.2247C18.4631 17.4806 17.8141 16.757 17.1666 16.0539C16.5268 15.3487 15.8966 14.6952 15.2762 14.0933L15.2413 13.5892C15.7322 13.5829 16.1222 13.4492 16.4112 13.1881C16.708 12.9249 16.9143 12.5732 17.0302 12.1331C17.1439 11.6851 17.1763 11.1672 17.1273 10.5792C17.0861 9.98915 16.9778 9.36695 16.8025 8.71263C16.6772 8.24525 16.5097 7.82261 16.2999 7.44468C16.088 7.05897 15.8479 6.73926 15.5796 6.48556C15.3169 6.22199 15.0341 6.03895 14.7311 5.93646C14.4261 5.82618 14.1138 5.81382 13.7945 5.8994C13.5452 5.96619 13.3492 6.06045 13.2065 6.18217C13.0695 6.29403 12.9699 6.4209 12.9078 6.56278C12.8435 6.69689 12.8096 6.83536 12.8062 6.97822C12.8084 7.11121 12.8252 7.23612 12.8565 7.35296L16.5696 21.2106C16.7303 21.8104 16.6875 22.2894 16.4412 22.6476C16.2027 23.0037 15.7602 23.2684 15.1136 23.4416C14.4593 23.617 13.9398 23.6101 13.5552 23.4209C13.1706 23.2318 12.8979 22.8373 12.7372 22.2375L8.99272 8.26302C8.87792 7.8346 8.52452 7.6997 7.93251 7.85833C7.50409 7.97312 7.08561 8.15622 6.67709 8.40761C6.27427 8.64913 5.92397 8.93084 5.62617 9.25275C5.33409 9.56478 5.11684 9.90685 4.97443 10.279C4.82993 10.6433 4.80569 11.0046 4.9017 11.3629C4.96849 11.6122 5.05287 11.8025 5.15485 11.9338C5.26461 12.063 5.37277 12.1551 5.47933 12.21C5.5838 12.2572 5.68201 12.2809 5.77395 12.2813C5.8716 12.2719 5.9399 12.2619 5.97885 12.2515C6.17359 12.1993 6.32492 12.1254 6.43286 12.0297C6.53871 11.9262 6.63287 11.8258 6.71535 11.7285C6.79574 11.6235 6.87043 11.5284 6.93942 11.4431C7.01411 11.3479 7.10988 11.2847 7.22672 11.2534C7.3202 11.2283 7.42383 11.2256 7.53761 11.2452C7.6571 11.255 7.77221 11.2951 7.88295 11.3656C8.00147 11.434 8.11276 11.5378 8.21682 11.6769C8.31879 11.8082 8.399 11.9829 8.45744 12.201C8.54093 12.5126 8.55062 12.798 8.48652 13.0573C8.4302 13.3145 8.32555 13.5471 8.17255 13.7551C8.02526 13.9532 7.83742 14.1246 7.60902 14.2692C7.38633 14.4041 7.15425 14.5038 6.91277 14.5685C6.53887 14.6687 6.18333 14.6972 5.84614 14.6539C5.51466 14.6008 5.21349 14.4895 4.94264 14.32C4.6718 14.1504 4.44114 13.9284 4.25069 13.6538C4.06023 13.3792 3.91909 13.0706 3.82725 12.7278C3.65401 12.0813 3.62239 11.4803 3.73237 10.9249C3.84026 10.3616 4.06431 9.8424 4.40452 9.3672C4.75251 8.88991 5.20289 8.45197 5.75565 8.0534C6.30632 7.64703 6.93677 7.27356 7.647 6.93297C8.35722 6.59239 9.12956 6.28108 9.96402 5.99905C10.8042 5.70714 11.6838 5.43804 12.603 5.19175Z" fill="white"/>
<path d="M17.7557 5.02584L17.0785 6.97607L17.0863 6.97879L17.0941 6.98145L17.7557 5.02584ZM20.5297 9.62997L18.469 9.50627L18.4684 9.51628L18.4679 9.52629L20.5297 9.62997ZM20.1956 11.047L18.3255 10.1725L18.3236 10.1766L20.1956 11.047ZM19.4045 12.1606L20.845 13.6395L20.8546 13.63L19.4045 12.1606ZM18.2811 13.0627L17.1349 11.3457L11.4736 15.125L18.2805 15.1272L18.2811 13.0627ZM19.424 13.4954L18.2547 15.1968L18.2649 15.2038L18.2751 15.2106L19.424 13.4954ZM20.7897 14.6197L19.3608 16.1098L19.3702 16.1187L20.7897 14.6197ZM23.8676 17.9276L22.323 19.2973L22.3292 19.3043L22.3355 19.3113L23.8676 17.9276ZM25.4546 19.6439L23.9562 21.0641L23.9628 21.071L23.9694 21.0779L25.4546 19.6439ZM26.9812 21.0883L25.6458 22.6627L25.6539 22.6695L25.6621 22.6764L26.9812 21.0883ZM28.3818 22.0154L27.4998 23.882L27.5097 23.8866L27.5196 23.8912L28.3818 22.0154ZM30.0212 21.9643L28.7845 20.3113L28.7696 20.3224L28.7549 20.3338L30.0212 21.9643ZM30.3333 21.6803L31.8358 20.2645L30.2148 18.5444L28.7283 20.3819L30.3333 21.6803ZM30.7008 22.0703L32.13 23.5601L33.6066 22.1435L32.2032 20.6544L30.7008 22.0703ZM30.2034 22.5041L28.9001 20.903L28.8774 20.9215L28.8553 20.9406L30.2034 22.5041ZM28.5246 23.53L27.676 21.648L27.6539 21.658L27.632 21.6685L28.5246 23.53ZM25.0888 23.8871L25.7845 21.9434L25.7761 21.9404L25.7676 21.9374L25.0888 23.8871ZM23.0535 22.554L21.5856 24.0057L21.5936 24.0137L23.0535 22.554ZM19.1133 18.2247L17.5587 19.5831L17.5636 19.5888L17.5686 19.5945L19.1133 18.2247ZM17.1666 16.0539L15.6376 17.441L15.6428 17.4468L15.648 17.4525L17.1666 16.0539ZM15.2762 14.0933L13.2167 14.2359L13.2712 15.0246L13.8388 15.5752L15.2762 14.0933ZM15.2413 13.5892L15.2148 11.5249L13.031 11.5529L13.1818 13.7317L15.2413 13.5892ZM16.4112 13.1881L15.0415 11.6434L15.0343 11.6498L15.0272 11.6562L16.4112 13.1881ZM17.0302 12.1331L19.0267 12.6585L19.0289 12.6499L19.0311 12.6412L17.0302 12.1331ZM17.1273 10.5792L15.0678 10.7231L15.0688 10.7369L15.0699 10.7507L17.1273 10.5792ZM16.2999 7.44468L14.4905 8.43868L14.4949 8.4467L16.2999 7.44468ZM15.5796 6.48556L14.1172 7.94279L14.1389 7.96459L14.1613 7.98574L15.5796 6.48556ZM14.7311 5.93646L14.0293 7.87796L14.0493 7.88522L14.0696 7.89206L14.7311 5.93646ZM13.2065 6.18217L14.5121 7.78139L14.5293 7.76732L14.5463 7.75287L13.2065 6.18217ZM12.9078 6.56278L14.7695 7.45486L14.7847 7.42331L14.7987 7.39127L12.9078 6.56278ZM12.8062 6.97822L10.7423 6.92816L10.7413 6.97055L10.742 7.01295L12.8062 6.97822ZM16.4412 22.6476L14.7401 21.4779L14.733 21.4882L14.726 21.4987L16.4412 22.6476ZM6.67709 8.40761L7.73869 10.1782L7.74891 10.1721L7.75906 10.1658L6.67709 8.40761ZM5.62617 9.25275L7.13337 10.6636L7.14164 10.6547L5.62617 9.25275ZM4.97443 10.279L6.89347 11.0401L6.89807 11.0285L6.90253 11.0169L4.97443 10.279ZM5.15485 11.9338L3.52434 13.2001L3.55211 13.2358L3.58142 13.2703L5.15485 11.9338ZM5.47933 12.21L4.5333 14.045L4.5811 14.0696L4.63012 14.0917L5.47933 12.21ZM5.77395 12.2813L5.76476 14.3458L5.86921 14.3463L5.97318 14.3362L5.77395 12.2813ZM6.43286 12.0297L7.80258 13.5743L7.84023 13.5409L7.87621 13.5057L6.43286 12.0297ZM6.71535 11.7285L8.28975 13.064L8.32324 13.0245L8.35471 12.9834L6.71535 11.7285ZM6.93942 11.4431L8.54444 12.7415L8.55399 12.7297L8.56336 12.7178L6.93942 11.4431ZM7.53761 11.2452L7.1871 13.2797L7.27809 13.2954L7.37011 13.3029L7.53761 11.2452ZM7.88295 11.3656L6.77402 13.107L6.81186 13.131L6.85071 13.1535L7.88295 11.3656ZM8.21682 11.6769L6.56376 12.9136L6.5749 12.9285L6.58631 12.9432L8.21682 11.6769ZM8.48652 13.0573L6.48238 12.5618L6.47574 12.5887L6.46982 12.6158L8.48652 13.0573ZM8.17255 13.7551L9.82927 14.9869L9.83551 14.9784L8.17255 13.7551ZM7.60902 14.2692L8.67814 16.0353L8.6961 16.0244L8.71383 16.0132L7.60902 14.2692ZM5.84614 14.6539L5.51955 16.6924L5.5515 16.6975L5.5836 16.7017L5.84614 14.6539ZM3.73237 10.9249L5.75756 11.3259L5.75997 11.3133L3.73237 10.9249ZM4.40452 9.3672L2.73636 8.15094L2.73109 8.15816L2.72588 8.16544L4.40452 9.3672ZM5.75565 8.0534L6.9631 9.72794L6.97233 9.72129L6.98148 9.71454L5.75565 8.0534ZM9.96402 5.99905L10.625 7.95483L10.6333 7.95203L10.6416 7.94916L9.96402 5.99905ZM12.603 5.19175L13.1373 7.18587C15.0682 6.66849 16.3177 6.71188 17.0785 6.97607L17.7557 5.02584L18.4329 3.07561C16.561 2.42557 14.3753 2.57956 12.0687 3.19762L12.603 5.19175ZM17.7557 5.02584L17.0941 6.98145C17.7316 7.19708 18.1026 7.56683 18.3082 8.33421L20.3023 7.79988L22.2965 7.26556C21.7507 5.2287 20.424 3.74908 18.4172 3.07024L17.7557 5.02584ZM20.3023 7.79988L18.3082 8.33421C18.452 8.87074 18.4842 9.25193 18.469 9.50627L20.5297 9.62997L22.5905 9.75366C22.6394 8.93885 22.5201 8.09999 22.2965 7.26556L20.3023 7.79988ZM20.5297 9.62997L18.4679 9.52629C18.4531 9.81942 18.3945 10.0247 18.3255 10.1725L20.1956 11.047L22.0657 11.9214C22.3894 11.2292 22.5536 10.4899 22.5916 9.73365L20.5297 9.62997ZM20.1956 11.047L18.3236 10.1766C18.2414 10.3532 18.124 10.5237 17.9543 10.6913L19.4045 12.1606L20.8546 13.63C21.3584 13.1328 21.7684 12.5609 22.0676 11.9174L20.1956 11.047ZM19.4045 12.1606L17.9639 10.6818C17.7309 10.9088 17.4566 11.131 17.1349 11.3457L18.2811 13.0627L19.4274 14.7798C19.9414 14.4366 20.4159 14.0574 20.845 13.6394L19.4045 12.1606ZM18.2811 13.0627L18.2805 15.1272C18.2207 15.1272 18.1734 15.1208 18.1411 15.1144C18.1093 15.108 18.0928 15.1018 18.0927 15.1017C18.0925 15.1017 18.096 15.103 18.1033 15.1063C18.1105 15.1097 18.1211 15.1149 18.1351 15.1224C18.1635 15.1378 18.2034 15.1615 18.2547 15.1968L19.424 13.4954L20.5932 11.7939C19.988 11.378 19.1991 10.9985 18.2818 10.9982L18.2811 13.0627ZM19.424 13.4954L18.2751 15.2106C18.5782 15.4136 18.94 15.7062 19.3608 16.1098L20.7897 14.6197L22.2186 13.1296C21.6732 12.6066 21.1245 12.1496 20.5729 11.7801L19.424 13.4954ZM20.7897 14.6197L19.3702 16.1187C19.8063 16.5316 20.2704 17.0091 20.7628 17.554L22.2947 16.1701L23.8266 14.7861C23.2744 14.1749 22.7352 13.6188 22.2092 13.1206L20.7897 14.6197ZM22.2947 16.1701L20.7628 17.554C21.2807 18.1273 21.8007 18.7084 22.323 19.2973L23.8676 17.9276L25.4123 16.5579C24.8817 15.9596 24.3531 15.369 23.8266 14.7861L22.2947 16.1701ZM23.8676 17.9276L22.3355 19.3113C22.8803 19.9146 23.4205 20.4989 23.9562 21.0641L25.4546 19.6439L26.953 18.2237C26.4411 17.6837 25.9234 17.1238 25.3998 16.544L23.8676 17.9276ZM25.4546 19.6439L23.9694 21.0779C24.5395 21.6683 25.0983 22.1983 25.6458 22.6627L26.9812 21.0883L28.3166 19.5139C27.8918 19.1535 27.4328 18.7205 26.9398 18.2099L25.4546 19.6439ZM26.9812 21.0883L25.6621 22.6764C26.2497 23.1644 26.8625 23.5808 27.4998 23.882L28.3818 22.0154L29.2638 20.1488C29.0217 20.0344 28.7007 19.8328 28.3003 19.5002L26.9812 21.0883ZM28.3818 22.0154L27.5196 23.8912C28.2602 24.2316 29.1682 24.4304 30.1249 24.174L29.5905 22.1799L29.0562 20.1858C29.1663 20.1563 29.2541 20.1592 29.298 20.1652C29.3358 20.1703 29.3203 20.1746 29.244 20.1396L28.3818 22.0154ZM29.5905 22.1799L30.1249 24.174C30.5547 24.0589 30.9457 23.8603 31.2875 23.5949L30.0212 21.9643L28.7549 20.3338C28.8341 20.2723 28.938 20.2175 29.0562 20.1858L29.5905 22.1799ZM30.0212 21.9643L31.2579 23.6174C31.4643 23.463 31.7181 23.251 31.9383 22.9788L30.3333 21.6803L28.7283 20.3819C28.7527 20.3517 28.7731 20.3294 28.7869 20.3151C28.8008 20.3007 28.8104 20.2918 28.8141 20.2883C28.8207 20.2824 28.8129 20.2901 28.7845 20.3113L30.0212 21.9643ZM30.3333 21.6803L28.8309 23.0962L29.1983 23.4862L30.7008 22.0703L32.2032 20.6544L31.8358 20.2645L30.3333 21.6803ZM30.7008 22.0703L29.2716 20.5805C29.1914 20.6574 29.0708 20.764 28.9001 20.903L30.2034 22.5041L31.5067 24.1052C31.7335 23.9206 31.9445 23.738 32.13 23.5601L30.7008 22.0703ZM30.2034 22.5041L28.8553 20.9406C28.755 21.027 28.6057 21.1386 28.3931 21.272L29.4903 23.0208L30.5874 24.7696C30.9323 24.5533 31.2584 24.3204 31.5515 24.0676L30.2034 22.5041ZM29.4903 23.0208L28.3931 21.272C28.2089 21.3875 27.9729 21.5142 27.676 21.648L28.5246 23.53L29.3733 25.412C29.8064 25.2167 30.2141 25.0038 30.5874 24.7696L29.4903 23.0208ZM28.5246 23.53L27.632 21.6685C27.4128 21.7736 27.1291 21.8794 26.7683 21.976L27.3026 23.9702L27.8369 25.9643C28.3953 25.8147 28.9263 25.627 29.4173 25.3915L28.5246 23.53ZM27.3026 23.9702L26.7683 21.976C26.4086 22.0724 26.1001 22.0564 25.7845 21.9434L25.0888 23.8871L24.393 25.8308C25.518 26.2335 26.6854 26.2728 27.8369 25.9643L27.3026 23.9702ZM25.0888 23.8871L25.7676 21.9374C25.3935 21.8072 24.9728 21.5537 24.5133 21.0942L23.0535 22.554L21.5936 24.0137C22.4115 24.8316 23.3477 25.4669 24.41 25.8368L25.0888 23.8871ZM23.0535 22.554L24.5213 21.1023C23.8966 20.4706 23.2668 19.7971 22.632 19.0812L21.0873 20.4509L19.5427 21.8206C20.2239 22.5888 20.9048 23.3173 21.5856 24.0057L23.0535 22.554ZM21.0873 20.4509L22.632 19.0812C22.515 18.9493 22.6256 19.074 22.5086 18.9421C22.3916 18.8101 22.5022 18.9349 22.3852 18.8029C22.2682 18.671 22.3788 18.7957 22.2618 18.6638C22.1449 18.5319 22.2555 18.6566 22.1385 18.5247C21.9196 18.2778 21.8638 18.215 21.645 17.9681C21.3948 17.686 20.9081 17.1371 20.6579 16.855L19.1133 18.2247L17.5686 19.5945C17.7875 19.8413 17.8433 19.9042 18.0622 20.151C18.281 20.3979 18.3368 20.4607 18.5557 20.7075C18.9351 21.1354 19.1633 21.3928 19.5427 21.8206L21.0873 20.4509ZM19.1133 18.2247L20.6679 16.8663C20.0062 16.1091 19.3453 15.372 18.6851 14.6553L17.1666 16.0539L15.648 17.4525C16.283 18.1419 16.9199 18.8521 17.5587 19.5831L19.1133 18.2247ZM17.1666 16.0539L18.6955 14.6667C18.0292 13.9322 17.3686 13.2468 16.7136 12.6115L15.2762 14.0933L13.8388 15.5752C14.4247 16.1435 15.0244 16.7652 15.6376 17.441L17.1666 16.0539ZM15.2762 14.0933L17.3357 13.9508L17.3009 13.4467L15.2413 13.5892L13.1818 13.7317L13.2167 14.2359L15.2762 14.0933ZM15.2413 13.5892L15.2678 15.6535C16.1257 15.6425 17.0441 15.3985 17.7952 14.72L16.4112 13.1881L15.0272 11.6562C15.1019 11.5888 15.1789 11.5497 15.2324 11.5313C15.2796 11.5151 15.2819 11.524 15.2148 11.5249L15.2413 13.5892ZM16.4112 13.1881L17.7809 14.7327C18.4258 14.1608 18.8228 13.4331 19.0267 12.6585L17.0302 12.1331L15.0337 11.6076C15.0182 11.6664 15.0055 11.6864 15.0079 11.6822C15.009 11.6804 15.0126 11.6747 15.0191 11.6667C15.0257 11.6586 15.0334 11.6506 15.0415 11.6434L16.4112 13.1881ZM17.0302 12.1331L19.0311 12.6412C19.2144 11.9197 19.2476 11.1638 19.1846 10.4077L17.1273 10.5792L15.0699 10.7507C15.105 11.1706 15.0735 11.4506 15.0292 11.6249L17.0302 12.1331ZM17.1273 10.5792L19.1867 10.4353C19.1351 9.69595 19.0013 8.94237 18.7966 8.1783L16.8025 8.71263L14.8083 9.24695C14.9542 9.79153 15.037 10.2823 15.0678 10.7231L17.1273 10.5792ZM16.8025 8.71263L18.7966 8.1783C18.6328 7.56699 18.4057 6.98451 18.1049 6.44266L16.2999 7.44468L14.4949 8.4467C14.6137 8.6607 14.7217 8.92352 14.8083 9.24695L16.8025 8.71263ZM16.2999 7.44468L18.1093 6.4507C17.8134 5.91191 17.4486 5.41157 16.9978 4.98538L15.5796 6.48556L14.1613 7.98574C14.2472 8.06695 14.3627 8.20603 14.4905 8.43867L16.2999 7.44468ZM15.5796 6.48556L17.0419 5.02834C16.5911 4.57589 16.0431 4.2009 15.3927 3.98085L14.7311 5.93646L14.0696 7.89206C14.0507 7.88567 14.0433 7.88023 14.0488 7.88376C14.0551 7.88787 14.0787 7.90415 14.1172 7.94279L15.5796 6.48556ZM14.7311 5.93646L15.433 3.99496C14.7228 3.73823 13.9789 3.71269 13.2601 3.90527L13.7945 5.8994L14.3288 7.89353C14.2995 7.90138 14.2498 7.90984 14.1865 7.90734C14.1229 7.90482 14.0684 7.89209 14.0293 7.87796L14.7311 5.93646ZM13.7945 5.8994L13.2601 3.90527C12.8193 4.02339 12.3137 4.23022 11.8667 4.61148L13.2065 6.18217L14.5463 7.75287C14.4629 7.82397 14.3927 7.8627 14.3553 7.88067C14.3185 7.89836 14.306 7.89964 14.3288 7.89353L13.7945 5.8994ZM13.2065 6.18217L11.9009 4.58296C11.5466 4.87219 11.2278 5.25274 11.0168 5.7343L12.9078 6.56278L14.7987 7.39127C14.712 7.58905 14.5924 7.71586 14.5121 7.78139L13.2065 6.18217ZM12.9078 6.56278L11.046 5.67071C10.8608 6.05711 10.7531 6.48162 10.7423 6.92816L12.8062 6.97822L14.87 7.02829C14.8661 7.18911 14.8262 7.33666 14.7695 7.45486L12.9078 6.56278ZM12.8062 6.97822L10.742 7.01295C10.7468 7.29814 10.7833 7.59214 10.8624 7.88729L12.8565 7.35296L14.8506 6.81864C14.8671 6.88009 14.87 6.92427 14.8704 6.9435L12.8062 6.97822ZM12.8565 7.35296L10.8624 7.88729L14.5755 21.7449L16.5696 21.2106L18.5638 20.6763L14.8506 6.81864L12.8565 7.35296ZM16.5696 21.2106L14.5755 21.7449C14.6105 21.8756 14.5964 21.8963 14.6018 21.8359C14.6047 21.8029 14.6133 21.7492 14.6364 21.6824C14.6598 21.6146 14.6943 21.5444 14.7401 21.4779L16.4412 22.6476L18.1423 23.8173C18.8579 22.7767 18.8116 21.6013 18.5638 20.6763L16.5696 21.2106ZM16.4412 22.6476L14.726 21.4987C14.8075 21.377 14.8825 21.3344 14.8707 21.3415C14.8643 21.3453 14.8395 21.3593 14.7901 21.3791C14.7407 21.399 14.6717 21.4228 14.5793 21.4475L15.1136 23.4416L15.648 25.4358C16.5188 25.2024 17.52 24.7467 18.1565 23.7965L16.4412 22.6476ZM15.1136 23.4416L14.5793 21.4475C14.4841 21.473 14.4099 21.4875 14.355 21.4954C14.2999 21.5033 14.2696 21.5038 14.2607 21.5037C14.2437 21.5034 14.3313 21.502 14.4662 21.5683L13.5552 23.4209L12.6442 25.2735C13.6748 25.7803 14.7767 25.6692 15.648 25.4358L15.1136 23.4416ZM13.5552 23.4209L14.4662 21.5683C14.5407 21.6049 14.6055 21.6498 14.6584 21.6968C14.7105 21.743 14.7431 21.7842 14.7604 21.8093C14.7917 21.8546 14.7675 21.8384 14.7313 21.7032L12.7372 22.2375L10.743 22.7718C10.9871 23.6826 11.5211 24.7212 12.6442 25.2735L13.5552 23.4209ZM12.7372 22.2375L14.7313 21.7032L10.9868 7.7287L8.99272 8.26302L6.99859 8.79735L10.743 22.7718L12.7372 22.2375ZM8.99272 8.26302L10.9868 7.7287C10.7918 7.00063 10.2855 6.2583 9.3778 5.9118C8.61281 5.61979 7.87514 5.7364 7.39819 5.8642L7.93251 7.85833L8.46684 9.85245C8.58189 9.82163 8.31693 9.92637 7.90534 9.76926C7.67359 9.6808 7.45007 9.52793 7.27419 9.31632C7.10623 9.11423 7.03108 8.91861 6.99859 8.79735L8.99272 8.26302ZM7.93251 7.85833L7.39819 5.8642C6.76171 6.03474 6.16002 6.30176 5.59512 6.64938L6.67709 8.40761L7.75906 10.1658C8.01121 10.0107 8.24646 9.9115 8.46684 9.85245L7.93251 7.85833ZM6.67709 8.40761L5.6155 6.637C5.05656 6.97212 4.55063 7.37526 4.11071 7.85082L5.62617 9.25275L7.14164 10.6547C7.2973 10.4864 7.49198 10.3261 7.73869 10.1782L6.67709 8.40761ZM5.62617 9.25275L4.119 7.84191C3.6578 8.33459 3.29097 8.90184 3.04633 9.54107L4.97443 10.279L6.90253 11.0169C6.94271 10.9119 7.01037 10.795 7.13335 10.6636L5.62617 9.25275ZM4.97443 10.279L3.05538 9.51784C2.75713 10.2698 2.68997 11.0851 2.90757 11.8973L4.9017 11.3629L6.89583 10.8286C6.90506 10.8631 6.91115 10.9103 6.90772 10.9614C6.90612 10.9851 6.9028 11.0047 6.89943 11.0192C6.8961 11.0336 6.89324 11.0407 6.89347 11.0401L4.97443 10.279ZM4.9017 11.3629L2.90757 11.8973C3.01042 12.2811 3.18653 12.7651 3.52434 13.2001L5.15485 11.9338L6.78536 10.6675C6.85897 10.7623 6.89287 10.8344 6.90232 10.8557C6.91239 10.8784 6.90778 10.8732 6.89583 10.8286L4.9017 11.3629ZM5.15485 11.9338L3.58142 13.2703C3.79885 13.5263 4.10972 13.8266 4.5333 14.045L5.47933 12.21L6.42535 10.3751C6.53541 10.4318 6.61177 10.4897 6.65653 10.5278C6.7014 10.566 6.72455 10.5928 6.72828 10.5972L5.15485 11.9338ZM5.47933 12.21L4.63012 14.0917C4.93547 14.2295 5.32097 14.3438 5.76476 14.3458L5.77395 12.2813L5.78315 10.2169C6.04304 10.218 6.23212 10.2848 6.32854 10.3283L5.47933 12.21ZM5.77395 12.2813L5.97318 14.3362C6.06928 14.3269 6.29149 14.305 6.51317 14.2456L5.97885 12.2515L5.44452 10.2574C5.49762 10.2431 5.53816 10.235 5.55858 10.2311C5.58078 10.2269 5.59569 10.2246 5.60074 10.2239C5.60971 10.2226 5.60311 10.2238 5.57473 10.2265L5.77395 12.2813ZM5.97885 12.2515L6.51317 14.2456C6.90178 14.1415 7.37893 13.95 7.80258 13.5743L6.43286 12.0297L5.06314 10.485C5.16995 10.3903 5.26728 10.3337 5.33207 10.302C5.39621 10.2707 5.43788 10.2591 5.44452 10.2574L5.97885 12.2515ZM6.43286 12.0297L7.87621 13.5057C8.0208 13.3643 8.15983 13.2171 8.28975 13.064L6.71535 11.7285L5.14096 10.3931C5.10591 10.4344 5.05662 10.488 4.98951 10.5536L6.43286 12.0297ZM6.71535 11.7285L8.35471 12.9834C8.42605 12.8901 8.48916 12.8099 8.54444 12.7415L6.93942 11.4431L5.3344 10.1446C5.2517 10.2469 5.16544 10.3569 5.07599 10.4737L6.71535 11.7285ZM6.93942 11.4431L8.56336 12.7178C8.36224 12.974 8.07567 13.1632 7.76105 13.2475L7.22672 11.2534L6.6924 9.25926C6.14408 9.40618 5.66598 9.72185 5.31548 10.1684L6.93942 11.4431ZM7.22672 11.2534L7.76105 13.2475C7.51564 13.3133 7.31163 13.3012 7.1871 13.2797L7.53761 11.2452L7.88812 9.21073C7.53602 9.15007 7.12475 9.14342 6.6924 9.25926L7.22672 11.2534ZM7.53761 11.2452L7.37011 13.3029C7.12368 13.2828 6.91919 13.1994 6.77402 13.107L7.88295 11.3656L8.99187 9.62423C8.62524 9.39076 8.19053 9.22708 7.70512 9.18756L7.53761 11.2452ZM7.88295 11.3656L6.85071 13.1535C6.67136 13.0499 6.58376 12.9403 6.56376 12.9136L8.21682 11.6769L9.86988 10.4402C9.64175 10.1352 9.33157 9.81811 8.91518 9.57771L7.88295 11.3656ZM8.21682 11.6769L6.58631 12.9432C6.52643 12.8661 6.49322 12.8025 6.47726 12.7677C6.46142 12.7332 6.45909 12.7196 6.46331 12.7353L8.45744 12.201L10.4516 11.6667C10.3459 11.2723 10.1669 10.822 9.84733 10.4106L8.21682 11.6769ZM8.45744 12.201L6.46331 12.7353C6.46957 12.7587 6.46516 12.7517 6.46404 12.7188C6.46287 12.6843 6.46568 12.6294 6.48238 12.5618L8.48652 13.0573L10.4907 13.5528C10.6542 12.8912 10.6067 12.2455 10.4516 11.6667L8.45744 12.201ZM8.48652 13.0573L6.46982 12.6158C6.47121 12.6094 6.47501 12.5956 6.48312 12.5775C6.49129 12.5594 6.50086 12.5436 6.50959 12.5317L8.17255 13.7551L9.83551 14.9784C10.1633 14.5328 10.3863 14.0328 10.5032 13.4989L8.48652 13.0573ZM8.17255 13.7551L6.51586 12.5232C6.51942 12.5184 6.52268 12.5146 6.52533 12.5116C6.52797 12.5087 6.52957 12.5072 6.52972 12.5071C6.53019 12.5067 6.52303 12.5133 6.50422 12.5253L7.60902 14.2692L8.71383 16.0132C9.13563 15.746 9.51718 15.4066 9.82925 14.9869L8.17255 13.7551ZM7.60902 14.2692L6.5399 12.5032C6.47692 12.5413 6.42415 12.5621 6.37845 12.5744L6.91277 14.5685L7.4471 16.5626C7.88435 16.4455 8.29575 16.2668 8.67814 16.0353L7.60902 14.2692ZM6.91277 14.5685L6.37845 12.5744C6.22839 12.6146 6.14488 12.6109 6.10869 12.6062L5.84614 14.6539L5.5836 16.7017C6.22178 16.7835 6.84936 16.7228 7.4471 16.5626L6.91277 14.5685ZM5.84614 14.6539L6.17273 12.6155C6.10019 12.6038 6.06274 12.5855 6.03803 12.5701L4.94264 14.32L3.84725 16.0699C4.36424 16.3935 4.92913 16.5978 5.51955 16.6924L5.84614 14.6539ZM4.94264 14.32L6.03803 12.5701C6.01508 12.5557 5.9855 12.5326 5.94702 12.4771L4.25069 13.6538L2.55436 14.8304C2.89679 15.3241 3.32851 15.7451 3.84725 16.0699L4.94264 14.32ZM4.25069 13.6538L5.94702 12.4771C5.90027 12.4097 5.85551 12.3209 5.82138 12.1935L3.82725 12.7278L1.83312 13.2621C1.98267 13.8202 2.2202 14.3487 2.55436 14.8304L4.25069 13.6538ZM3.82725 12.7278L5.82138 12.1935C5.71515 11.797 5.71914 11.5197 5.75752 11.3258L3.73237 10.9249L1.70721 10.5239C1.52563 11.4409 1.59288 12.3655 1.83312 13.2621L3.82725 12.7278ZM3.73237 10.9249L5.75997 11.3133C5.81062 11.0489 5.91328 10.8062 6.08315 10.569L4.40452 9.3672L2.72588 8.16544C2.21534 8.87856 1.86991 9.67433 1.70476 10.5364L3.73237 10.9249ZM4.40452 9.3672L6.07268 10.5835C6.27425 10.307 6.56051 10.0182 6.9631 9.72794L5.75565 8.0534L4.54819 6.37885C3.84526 6.88571 3.23077 7.47282 2.73636 8.15094L4.40452 9.3672ZM5.75565 8.0534L6.98148 9.71454C7.4134 9.3958 7.92942 9.08711 8.53966 8.79447L7.647 6.93297L6.75433 5.07147C5.94411 5.46 5.19924 5.89826 4.52981 6.39226L5.75565 8.0534ZM7.647 6.93297L8.53966 8.79447C9.16646 8.4939 9.86054 8.21322 10.625 7.95483L9.96402 5.99905L9.30299 4.04326C8.39859 4.34894 7.54798 4.69088 6.75433 5.07147L7.647 6.93297ZM9.96402 5.99905L10.6416 7.94916C11.4314 7.67474 12.2631 7.42012 13.1373 7.18587L12.603 5.19175L12.0687 3.19762C11.1046 3.45595 10.1769 3.73953 9.28645 4.04893L9.96402 5.99905Z" fill="#FF3C31" mask="url(#path-2-outside-1_302_446)"/>
</g>
<defs>
<clipPath id="clip0_302_446">
<rect width="30" height="30" rx="5" fill="white"/>
</clipPath>
</defs>
</svg>
